<?xml version="1.0" encoding="utf-8"?>
<!-- Generator: Adobe Illustrator 16.0.0, SVG Export Plug-In . SVG Version: 6.00 Build 0)  -->
<!DOCTYPE svg PUBLIC "-//W3C//DTD SVG 1.1//EN" "http://www.w3.org/Graphics/SVG/1.1/DTD/svg11.dtd">
<svg version="1.1" id="Layer_1" xmlns="http://www.w3.org/2000/svg" xmlns:xlink="http://www.w3.org/1999/xlink" x="0px" y="0px"
	 width="65px" height="65px" viewBox="0 0 65 65" enable-background="new 0 0 65 65" xml:space="preserve">
<g>
	<path d="M64.799,30.628L58.681,18.39c-0.322-0.646-0.981-1.053-1.704-1.053H43.18v-7.273c0-1.051-0.852-1.905-1.903-1.905H1.904
		v3.809h37.467v7.273v28.692H24.867c-0.441-4.01-3.848-7.138-7.973-7.138s-7.532,3.128-7.974,7.138H5.713v-6.317H1.904v8.222
		c0,1.052,0.853,1.904,1.904,1.904h5.615c1.171,2.981,4.077,5.101,7.47,5.101c3.392,0,6.297-2.119,7.469-5.101h15.563
		c1.172,2.981,4.076,5.101,7.469,5.101s6.298-2.119,7.469-5.101h8.232c1.052,0,1.904-0.853,1.904-1.904V31.479
		C65,31.185,64.932,30.893,64.799,30.628z M16.894,53.031c-2.324,0-4.214-1.89-4.214-4.215c0-2.322,1.891-4.213,4.214-4.213
		s4.215,1.891,4.215,4.213C21.108,51.142,19.217,53.031,16.894,53.031z M43.18,21.145h12.621l4.213,8.429H43.18V21.145z
		 M47.395,53.031c-2.324,0-4.215-1.89-4.215-4.215c0-2.322,1.891-4.213,4.215-4.213s4.215,1.891,4.215,4.213
		C51.609,51.142,49.719,53.031,47.395,53.031z M61.191,47.933h-5.823c-0.441-4.01-3.849-7.138-7.974-7.138
		c-1.545,0-2.988,0.439-4.215,1.199v-8.611h18.012V47.933z"/>
	<g>
		<rect x="4.079" y="32.635" fill="#179D82" width="10.91" height="3.808"/>
		<rect y="24.477" fill="#179D82" width="10.91" height="3.808"/>
		<rect x="4.079" y="16.318" fill="#179D82" width="10.91" height="3.807"/>
	</g>
</g>
</svg>
