<svg width="24" height="24" viewBox="0 0 24 24" fill="none" xmlns="http://www.w3.org/2000/svg">
<path fill-rule="evenodd" clip-rule="evenodd" d="M3 4.5L21 4.5C21.8284 4.5 22.5 5.17157 22.5 6L22.5 18C22.5 18.8284 21.8284 19.5 21 19.5L3 19.5C2.17158 19.5 1.5 18.8284 1.5 18L1.5 6C1.5 5.17157 2.17157 4.5 3 4.5ZM21 3C22.6569 3 24 4.34315 24 6L24 18C24 19.6569 22.6569 21 21 21L3 21C1.34315 21 1.45619e-06 19.6569 1.31134e-06 18L2.62268e-07 6C1.17422e-07 4.34315 1.34315 3 3 3L21 3Z" fill="#110D1C"/>
<path fill-rule="evenodd" clip-rule="evenodd" d="M22.4231 4.95887C22.1782 4.62485 21.7088 4.55264 21.3748 4.79759L12.0001 11.6723L2.62547 4.79759C2.29145 4.55264 1.82209 4.62485 1.57714 4.95887C1.33219 5.2929 1.4044 5.76225 1.73842 6.0072L11.5566 13.2072C11.8206 13.4008 12.1797 13.4008 12.4437 13.2072L22.2618 6.0072C22.5959 5.76225 22.6681 5.2929 22.4231 4.95887Z" fill="#110D1C"/>
</svg>
