<?xml version="1.0" encoding="utf-8"?>
<!-- Generator: Adobe Illustrator 16.0.0, SVG Export Plug-In . SVG Version: 6.00 Build 0)  -->
<!DOCTYPE svg PUBLIC "-//W3C//DTD SVG 1.1//EN" "http://www.w3.org/Graphics/SVG/1.1/DTD/svg11.dtd">
<svg version="1.1" id="Layer_1" xmlns="http://www.w3.org/2000/svg" xmlns:xlink="http://www.w3.org/1999/xlink" x="0px" y="0px"
	 width="65px" height="65px" viewBox="0 0 65 65" enable-background="new 0 0 65 65" xml:space="preserve">
<g>
	<path d="M56.132,47.121l-2.073-2.746l-3.04,2.295l2.073,2.747c2.482,3.288,3.308,6.376,2.263,8.474s-4.008,3.3-8.129,3.3H17.773
		c-4.121,0-7.084-1.202-8.129-3.3c-1.044-2.098-0.22-5.186,2.263-8.475l16.029-21.24c0.25-0.33,0.384-0.733,0.384-1.147V3.808h8.358
		v23.221c0,0.415,0.135,0.817,0.385,1.147l4.126,5.468l3.04-2.294l-3.742-4.958V3.808h2.098V0h-4.002H26.416h-4.001v3.808h2.098
		v22.583L8.868,47.121c-3.435,4.552-4.37,8.979-2.632,12.467C7.974,63.078,12.071,65,17.773,65h29.452
		c5.703,0,9.801-1.922,11.538-5.412C60.502,56.1,59.567,51.673,56.132,47.121z"/>
	<path fill="#179D82" d="M52.788,31.153L39.712,44.229l-5.865-5.864l-2.693,2.693l7.21,7.212c0.357,0.357,0.842,0.557,1.348,0.557
		c0.505,0,0.988-0.199,1.346-0.557l14.424-14.424L52.788,31.153z"/>
</g>
</svg>
