<?xml version="1.0" encoding="utf-8"?>
<!-- Generator: Adobe Illustrator 16.0.0, SVG Export Plug-In . SVG Version: 6.00 Build 0)  -->
<!DOCTYPE svg PUBLIC "-//W3C//DTD SVG 1.1//EN" "http://www.w3.org/Graphics/SVG/1.1/DTD/svg11.dtd">
<svg version="1.1" id="Layer_1" xmlns="http://www.w3.org/2000/svg" xmlns:xlink="http://www.w3.org/1999/xlink" x="0px" y="0px"
	 width="65px" height="65px" viewBox="0 0 65 65" enable-background="new 0 0 65 65" xml:space="preserve">
<g>
	<g>
		<path d="M61.191,39.64v18.356c0,1.763-1.434,3.195-3.195,3.195H7.003c-1.762,0-3.194-1.433-3.194-3.195V36.443H28.42v-3.808H3.809
			v-5.234c0-1.762,1.433-3.195,3.194-3.195h17.338v-3.809H7.003C3.142,20.397,0,23.539,0,27.401v30.595C0,61.857,3.142,65,7.003,65
			h50.993C61.858,65,65,61.857,65,57.996V39.64H61.191z"/>
		<rect x="14.142" y="44.874" width="10.199" height="3.808"/>
	</g>
	<path fill="#179D82" d="M63.77,5.904L48.471,0.123c-0.451-0.17-0.943-0.161-1.381,0.014L31.826,5.904
		c-0.74,0.28-1.23,0.989-1.23,1.781v16.028c0,4.069,2.846,8.139,8.456,12.097c3.938,2.777,7.821,4.482,7.985,4.554
		c0.242,0.105,0.502,0.159,0.762,0.159c0.258,0,0.518-0.054,0.76-0.159c0.164-0.071,4.049-1.776,7.986-4.554
		C62.155,31.853,65,27.783,65,23.714V7.686C65,6.894,64.51,6.185,63.77,5.904z M46.765,26.368c-0.356,0.356-0.842,0.557-1.347,0.557
		s-0.99-0.201-1.346-0.557l-4.76-4.76l2.692-2.693l3.413,3.413l8.172-8.172l2.693,2.693L46.765,26.368z"/>
</g>
</svg>
