<?xml version="1.0" encoding="utf-8"?>
<!-- Generator: Adobe Illustrator 16.0.0, SVG Export Plug-In . SVG Version: 6.00 Build 0)  -->
<!DOCTYPE svg PUBLIC "-//W3C//DTD SVG 1.1//EN" "http://www.w3.org/Graphics/SVG/1.1/DTD/svg11.dtd">
<svg version="1.1" id="Layer_1" xmlns="http://www.w3.org/2000/svg" xmlns:xlink="http://www.w3.org/1999/xlink" x="0px" y="0px"
	 width="65px" height="65px" viewBox="0 0 65 65" enable-background="new 0 0 65 65" xml:space="preserve">
<g>
	<g>
		<path d="M32.499,3.808c9.636,0,17.474,7.837,17.474,17.473h3.809C53.781,9.546,44.234,0,32.499,0
			C20.765,0,11.218,9.546,11.218,21.281h3.809C15.026,11.646,22.864,3.808,32.499,3.808z"/>
		<path d="M54.089,53.197c-1.007-3.523-4.667-6.285-8.331-6.285h-3.162H32.5c-7.386,0-13.395-6.007-13.395-13.393v-7.823
			l2.223-6.111c0.686-1.885,3.047-3.539,5.053-3.539h12.237c2.007,0,4.367,1.654,5.053,3.539l2.222,6.111v7.823h3.809v-8.158h-1.904
			l1.79-0.652l-2.337-6.426c-1.232-3.391-5.023-6.045-8.632-6.045H26.381c-3.608,0-7.399,2.654-8.632,6.045l-2.337,6.426
			l1.789,0.652h-1.903v8.158c0,5.406,2.508,10.237,6.42,13.393h-2.477c-3.665,0-7.324,2.762-8.331,6.285L7.564,65h3.959
			l3.049-10.756c0.536-1.877,2.718-3.522,4.669-3.522h2.374l8.98,8.98V65h3.808v-5.298l8.981-8.98h2.373
			c1.951,0,4.133,1.646,4.668,3.522L53.48,65h3.959L54.089,53.197z M32.5,56.221l-5.499-5.499h10.997L32.5,56.221z"/>
	</g>
	<g>
		<path fill="#179D82" d="M17.201,20.646h-4.079c-3.299,0-5.983,2.685-5.983,5.985v4.849c0,3.3,2.685,5.983,5.983,5.983h4.079
			c1.053,0,1.904-0.852,1.904-1.904V22.55C19.105,21.499,18.254,20.646,17.201,20.646z"/>
		<path fill="#179D82" d="M51.877,20.646h-4.08c-1.051,0-1.904,0.854-1.904,1.905v13.008c0,1.053,0.854,1.904,1.904,1.904h2.176
			v2.82H36.578v3.81h15.299c1.052,0,1.904-0.853,1.904-1.904v-5.037c2.368-0.798,4.08-3.037,4.08-5.672V26.63
			C57.861,23.33,55.176,20.646,51.877,20.646z"/>
	</g>
</g>
</svg>
